<svg width="40.625000" height="28.125000" viewBox="0 0 40.625 28.125" fill="none" xmlns="http://www.w3.org/2000/svg" xmlns:xlink="http://www.w3.org/1999/xlink">
	<desc>
			Created with Pixso.
	</desc>
	<defs/>
	<path d="M39.06 9.37C38.64 9.37 38.25 9.53 37.95 9.83C37.66 10.12 37.5 10.52 37.5 10.93L37.5 23.43C37.5 23.85 37.33 24.24 37.04 24.54C36.74 24.83 36.35 25 35.93 25L4.68 25C4.27 25 3.87 24.83 3.58 24.54C3.28 24.24 3.12 23.85 3.12 23.43L3.12 10.93C3.12 10.52 2.96 10.12 2.66 9.83C2.37 9.53 1.97 9.37 1.56 9.37C1.14 9.37 0.75 9.53 0.45 9.83C0.16 10.12 0 10.52 0 10.93L0 23.43C0 24.68 0.49 25.87 1.37 26.75C2.25 27.62 3.44 28.12 4.68 28.12L35.93 28.12C37.18 28.12 38.37 27.62 39.25 26.75C40.12 25.87 40.62 24.68 40.62 23.43L40.62 10.93C40.62 10.52 40.46 10.12 40.16 9.83C39.87 9.53 39.47 9.37 39.06 9.37Z" fill="#625791" fill-opacity="1.000000" fill-rule="nonzero"/>
	<path d="M19.37 18.43C19.64 18.64 19.97 18.75 20.31 18.75C20.65 18.75 20.97 18.64 21.25 18.43L39.7 4.59C39.99 4.37 40.19 4.06 40.28 3.71C40.36 3.36 40.32 2.99 40.17 2.67C39.93 2.19 39.62 1.75 39.25 1.37C38.37 0.49 37.18 0 35.93 0L4.68 0C3.44 0 2.25 0.49 1.37 1.37C0.99 1.75 0.68 2.19 0.45 2.67C0.29 2.99 0.25 3.36 0.34 3.71C0.43 4.06 0.63 4.37 0.92 4.59L19.37 18.43ZM4.68 3.12L35.93 3.12C36.08 3.1 36.23 3.1 36.37 3.12L20.31 15.23L4.25 3.12C4.39 3.1 4.54 3.1 4.68 3.12Z" fill="#625791" fill-opacity="1.000000" fill-rule="nonzero"/>
</svg>
