<svg width="328.292114" height="378.992249" viewBox="0 0 328.292 378.992" fill="none" xmlns="http://www.w3.org/2000/svg" xmlns:xlink="http://www.w3.org/1999/xlink">
	<desc>
			Created with Pixso.
	</desc>
	<defs/>
	<path d="M307.96 302.67C300.53 297.58 294.55 290.66 291.57 282.22C290.45 279.29 289.55 276.28 288.87 273.21C283.24 236.1 278.61 199.24 277.58 161.85C277.06 142.75 273.08 124.61 262.57 103.18C245.06 72.01 217.33 49.56 178.66 44.62C174.8 44.12 170.83 43.8 166.76 43.68C165.9 43.68 165.03 43.68 164.16 43.68C163.29 43.68 162.42 43.68 161.55 43.68C157.48 43.81 153.52 44.12 149.66 44.62C110.95 49.54 83.23 71.99 65.71 103.16C55.18 124.59 51.19 142.73 50.7 161.83C49.7 199.22 45.05 236.08 39.41 273.19C38.74 276.26 37.84 279.27 36.72 282.2C33.72 290.67 27.71 297.56 20.33 302.65C17.48 304.65 15.93 307.65 15.87 311.7C15.75 318.9 20.79 323.42 29.44 323.52L164.16 325.13L298.87 323.52C307.53 323.42 312.56 318.9 312.44 311.7C312.35 307.71 310.8 304.62 307.96 302.67ZM117.88 227.8C115.15 227.81 112.48 227 110.21 225.48C107.94 223.97 106.17 221.81 105.12 219.29C104.07 216.77 103.8 214 104.33 211.32C104.86 208.64 106.18 206.18 108.11 204.25C110.04 202.32 112.5 201.01 115.18 200.48C117.86 199.95 120.63 200.22 123.16 201.27C125.68 202.31 127.83 204.08 129.35 206.35C130.86 208.62 131.67 211.29 131.67 214.02C131.67 217.67 130.21 221.18 127.63 223.76C125.04 226.35 121.54 227.8 117.88 227.8ZM164.49 266.31C148.53 266.31 136.46 253.31 135.92 237.76C135.63 229.76 148.04 229.76 148.34 237.76C149.11 258.58 179.87 258.58 180.63 237.76C180.93 229.76 193.34 229.76 193.05 237.76C192.48 253.27 180.41 266.31 164.49 266.31ZM211.1 227.8C208.37 227.81 205.7 227 203.43 225.48C201.15 223.97 199.38 221.81 198.34 219.29C197.29 216.77 197.02 214 197.55 211.32C198.08 208.64 199.4 206.18 201.33 204.25C203.26 202.32 205.72 201.01 208.4 200.48C211.08 199.95 213.85 200.22 216.37 201.27C218.9 202.31 221.05 204.08 222.57 206.35C224.08 208.62 224.89 211.29 224.89 214.02C224.89 217.68 223.44 221.18 220.85 223.77C218.26 226.35 214.76 227.8 211.1 227.8Z" fill="#F8BC19" fill-opacity="1.000000" fill-rule="nonzero"/>
	<path d="M131.67 214.02C131.67 216.75 130.86 219.42 129.34 221.68C127.83 223.95 125.67 225.72 123.15 226.77C120.63 227.81 117.85 228.08 115.17 227.55C112.5 227.02 110.04 225.7 108.11 223.77C106.18 221.84 104.86 219.38 104.33 216.7C103.8 214.03 104.07 211.25 105.12 208.73C106.17 206.21 107.94 204.06 110.21 202.54C112.48 201.03 115.15 200.22 117.88 200.22C119.69 200.22 121.49 200.58 123.16 201.27C124.83 201.97 126.35 202.98 127.63 204.26C128.92 205.55 129.93 207.07 130.62 208.74C131.32 210.41 131.67 212.21 131.67 214.02Z" fill="#625791" fill-opacity="1.000000" fill-rule="nonzero"/>
	<path d="M224.89 214.02C224.89 216.74 224.08 219.41 222.56 221.68C221.04 223.94 218.89 225.71 216.37 226.75C213.85 227.79 211.08 228.06 208.4 227.53C205.73 227 203.27 225.68 201.34 223.75C199.41 221.82 198.1 219.37 197.57 216.69C197.04 214.02 197.31 211.25 198.36 208.73C199.4 206.21 201.17 204.06 203.44 202.55C205.7 201.03 208.37 200.22 211.1 200.22C212.91 200.22 214.7 200.58 216.38 201.27C218.05 201.97 219.57 202.98 220.85 204.26C222.13 205.55 223.15 207.07 223.84 208.74C224.53 210.41 224.89 212.21 224.89 214.02Z" fill="#625791" fill-opacity="1.000000" fill-rule="nonzero"/>
	<path d="M193.05 237.76C192.48 253.27 180.44 266.31 164.49 266.31C148.53 266.31 136.46 253.31 135.92 237.76C135.63 229.76 148.04 229.76 148.34 237.76C149.11 258.58 179.87 258.58 180.63 237.76C180.93 229.79 193.34 229.78 193.05 237.76Z" fill="#625791" fill-opacity="1.000000" fill-rule="nonzero"/>
	<path d="M165 364.03C166.04 364.02 167.08 363.95 168.11 363.81L168.11 363.76C167.08 363.9 166.04 363.99 165 364.03ZM164.2 342.81C165.52 342.81 166.82 342.81 168.11 342.81L168.11 342.76L164.2 342.81ZM164.13 27.61C165.46 27.61 166.78 27.61 168.13 27.71L168.13 27.61C166.78 27.58 165.46 27.57 164.13 27.61ZM164.13 0.1C165.47 0.17 166.81 0.32 168.13 0.56L168.13 0.02C166.8 -0.03 165.47 0 164.15 0.1L164.13 0.1Z" fill="#625791" fill-opacity="1.000000" fill-rule="nonzero"/>
	<path d="M316.42 289.7C308.35 285.52 306.41 279.27 304.68 271.69C296.61 235.41 294.02 198.53 293.44 161.55C292.51 99.42 252.17 48.41 198.88 32.84C198.88 32.37 198.79 31.96 198.74 31.63C197.99 25.89 195.86 20.42 192.53 15.68C189.21 10.95 184.78 7.09 179.63 4.44C176.02 2.54 172.13 1.23 168.11 0.56C166.79 0.32 165.45 0.17 164.11 0.1C162.77 0.17 161.43 0.32 160.1 0.56C156.08 1.23 152.19 2.54 148.58 4.44C143.44 7.09 139.02 10.95 135.7 15.69C132.38 20.43 130.26 25.9 129.52 31.63C129.47 31.96 129.42 32.37 129.38 32.84C76.08 48.41 35.8 99.42 34.82 161.59C34.24 198.6 31.65 235.45 23.58 271.73C21.89 279.27 19.91 285.52 11.83 289.74C1.72 294.97 -2.08 308.37 1.08 319.62C2.58 325.05 5.76 329.86 10.17 333.37C14.57 336.88 19.97 338.91 25.6 339.16C36.12 339.67 46.68 339.77 57.21 339.54L120.26 340.3C120.26 340.67 120.35 340.99 120.39 341.3C122.66 355.87 130.24 367.31 141.72 373.5L141.9 373.6C148.52 376.99 155.83 378.84 163.28 378.99C163.52 378.99 163.76 378.99 164.01 378.99C164.26 378.99 164.72 378.99 165.06 378.99C172.5 378.82 179.8 376.96 186.42 373.56L186.6 373.46C198.08 367.26 205.61 355.83 207.92 341.26C207.92 340.98 208 340.66 208.05 340.26L271.11 339.5C281.64 339.73 292.2 339.63 302.71 339.12C308.34 338.87 313.75 336.84 318.15 333.32C322.56 329.81 325.74 324.99 327.24 319.56C330.34 308.33 326.53 294.93 316.42 289.7ZM155.55 17.59C158.21 16.18 161.13 15.31 164.13 15.03C167.13 15.3 170.04 16.17 172.71 17.58C177.61 20.1 181.33 24.44 183.07 29.66L175.84 28.24C173.28 27.96 170.71 27.78 168.15 27.67C166.82 27.61 165.5 27.57 164.15 27.57C162.8 27.57 161.5 27.57 160.14 27.67C157.58 27.78 155.02 27.96 152.46 28.24L145.22 29.66C146.97 24.46 150.67 20.14 155.55 17.62L155.55 17.59ZM179.57 360.28C175.98 362.1 172.1 363.28 168.1 363.78C167.07 363.92 166.03 363.99 164.99 364L163.25 364C162.21 363.99 161.17 363.92 160.13 363.78C156.14 363.28 152.26 362.1 148.66 360.28C142.32 356.82 137.84 350.59 135.78 342.48C144.15 342.61 152.27 342.7 160.13 342.76L164.05 342.76L164.19 342.76L168.1 342.76C175.98 342.69 184.1 342.6 192.45 342.48C190.42 350.62 185.93 356.85 179.58 360.31L179.57 360.28ZM298.83 323.51L164.13 325.16L29.41 323.55C20.76 323.45 15.72 318.93 15.84 311.73C15.9 307.73 17.45 304.63 20.3 302.68C27.72 297.59 33.71 290.67 36.69 282.23C37.81 279.3 38.71 276.29 39.38 273.22C45.02 236.11 49.64 199.25 50.67 161.86C51.19 142.76 55.18 124.62 65.68 103.19C83.2 72.02 110.92 49.57 149.6 44.63C153.46 44.13 157.42 43.81 161.49 43.69C162.36 43.69 163.23 43.69 164.1 43.69C164.97 43.69 165.84 43.69 166.7 43.69C170.77 43.82 174.74 44.13 178.6 44.63C217.27 49.57 245 72.02 262.51 103.19C273.05 124.62 277.03 142.76 277.52 161.86C278.52 199.25 283.18 236.11 288.81 273.22C289.49 276.29 290.39 279.3 291.51 282.23C294.51 290.7 300.51 297.59 307.9 302.68C310.74 304.68 312.29 307.68 312.35 311.73C312.52 318.92 307.52 323.44 298.84 323.54L298.83 323.51Z" fill="#625791" fill-opacity="1.000000" fill-rule="nonzero"/>
	<path d="M192.42 342.51C190.42 350.62 185.89 356.85 179.54 360.31C175.95 362.13 172.07 363.31 168.07 363.81L168.07 363.76C167.07 363.9 166 363.99 164.96 364.03L163.22 364.03C162.17 364.02 161.14 363.95 160.1 363.81C156.11 363.31 152.23 362.13 148.63 360.31C142.29 356.85 137.81 350.62 135.75 342.51C144.12 342.64 152.24 342.73 160.1 342.79L164.02 342.79L164.16 342.79C165.48 342.79 166.78 342.79 168.07 342.79L168.07 342.74C175.98 342.71 184.09 342.63 192.42 342.51Z" fill="#F39B03" fill-opacity="1.000000" fill-rule="nonzero"/>
</svg>
